<?xml version="1.0" encoding="utf-8"?>
<!-- Generator: Adobe Illustrator 16.0.0, SVG Export Plug-In . SVG Version: 6.00 Build 0)  -->
<!DOCTYPE svg PUBLIC "-//W3C//DTD SVG 1.1//EN" "http://www.w3.org/Graphics/SVG/1.1/DTD/svg11.dtd">
<svg version="1.1" id="Layer_1" xmlns="http://www.w3.org/2000/svg" xmlns:xlink="http://www.w3.org/1999/xlink" x="0px" y="0px"
	 width="1440px" height="1440px" viewBox="0 0 1440 1440" enable-background="new 0 0 1440 1440" xml:space="preserve">
<g>
	<g>
		<path fill-rule="evenodd" clip-rule="evenodd" fill="#3BB4E8" d="M216.214,931.31c0-303.671,0-607.342,0-911.013
			c335.857,0,671.715,0,1007.572,0c0,466.469,0,932.937,0,1399.405c-0.918-2.099-1.965-4.149-2.734-6.299
			c-10.093-28.221-23.809-54.573-41.231-78.933c-47.69-66.676-112.557-110.192-188.316-138.726
			c-76.917-28.968-157.132-40.228-238.752-41.72c-64.089-1.173-128.155-1.328-191.964-8.574
			c-38.417-4.362-76.358-10.971-113.692-21.133c-93.066-25.333-165.811-77.304-213.546-162.249
			C227.784,951.81,221.993,941.563,216.214,931.31z"/>
	</g>
</g>
</svg>
